<?xml version="1.0" encoding="utf-8"?>
<!-- Generator: Adobe Illustrator 23.0.2, SVG Export Plug-In . SVG Version: 6.00 Build 0)  -->
<svg version="1.1" id="Capa_1" focusable="false" xmlns="http://www.w3.org/2000/svg" xmlns:xlink="http://www.w3.org/1999/xlink"
	 x="0px" y="0px" viewBox="0 0 65.7 69.2" style="enable-background:new 0 0 65.7 69.2;" xml:space="preserve">
<path d="M44.6,19.6h-4.2c-3.3,0-4,1.6-4,3.9v5.1h7.9l-1,8h-6.9v20.5h-8.3V36.6h-6.9v-8h6.9v-5.9c0-6.9,4.2-10.6,10.3-10.6
	c2.9,0,5.4,0.2,6.2,0.3L44.6,19.6L44.6,19.6z M55.1,2.7H10.6c-5.4,0-9.7,4.3-9.7,9.7v44.4c0,5.4,4.3,9.7,9.7,9.7h44.4
	c5.4,0,9.7-4.3,9.7-9.7V12.4C64.8,7,60.4,2.7,55.1,2.7"/>
</svg>
