<?xml version="1.0" encoding="utf-8"?>
<!-- Generator: Adobe Illustrator 23.0.2, SVG Export Plug-In . SVG Version: 6.00 Build 0)  -->
<svg version="1.1" id="Capa_1" focusable="false" xmlns="http://www.w3.org/2000/svg" xmlns:xlink="http://www.w3.org/1999/xlink"
	 x="0px" y="0px" viewBox="0 0 65.7 69.2" style="enable-background:new 0 0 65.7 69.2;" xml:space="preserve">
<g>
	<path d="M46.1,24.5c-1.6,0-3-1.4-3-3c0-1.6,1.4-2.9,3-2.9c1.7,0,2.9,1.3,2.9,3C49.1,23.2,47.7,24.5,46.1,24.5 M32.9,47.4
		c-7.1,0-12.7-5.6-12.7-12.6c0-7.1,5.6-12.8,12.6-12.8c7.1,0,12.7,5.6,12.8,12.7C45.7,41.7,40,47.4,32.9,47.4 M45.1,14.8
		c-4-0.5-19.6-0.3-23.3-0.2c-5.3,0.2-8.8,3.5-9,8.8c-0.2,7.5-0.2,14.9,0,22.4c0.1,5.2,3.6,8.7,8.8,8.8c7.4,0.2,14.9,0.2,22.3,0
		c5.3-0.1,8.8-3.6,8.9-8.9c0.2-7.4,0.2-14.9,0-22.3C52.8,18.7,50,15.4,45.1,14.8"/>
	<path d="M32.9,26.5c-4.6,0-8.2,3.6-8.2,8.2c0,4.5,3.6,8.2,8.2,8.2c4.6,0,8.3-3.6,8.3-8.2C41.2,30.1,37.5,26.5,32.9,26.5"/>
	<path d="M57.4,46.3c-0.2,7.2-5.6,12.7-12.9,12.9c-7.7,0.2-15.5,0.2-23.3,0C14.9,59,10,54.7,8.7,48.5c-0.3-1.3-0.4-2.6-0.6-3.9V24.8
		c0.1-0.6,0.2-1.1,0.2-1.7c0.4-6.4,4.4-11.2,10.6-12.6c1.3-0.3,2.7-0.4,4-0.6h19.8c0.5,0.1,1,0.2,1.6,0.2c7.3,0.4,12.8,5.7,13,13
		C57.6,30.9,57.6,38.6,57.4,46.3 M55.5,2.1H10.2c-5.5,0-9.9,4.4-9.9,9.9v45.3c0,5.5,4.4,9.9,9.9,9.9h45.3c5.5,0,9.9-4.4,9.9-9.9V12
		C65.4,6.5,60.9,2.1,55.5,2.1"/>
</g>
</svg>
