<?xml version="1.0" encoding="utf-8"?>
<!-- Generator: Adobe Illustrator 23.0.2, SVG Export Plug-In . SVG Version: 6.00 Build 0)  -->
<svg version="1.1" id="Capa_1" focusable="false" xmlns="http://www.w3.org/2000/svg" xmlns:xlink="http://www.w3.org/1999/xlink"
	 x="0px" y="0px" viewBox="0 0 65.7 69.2" style="enable-background:new 0 0 65.7 69.2;" xml:space="preserve">
<path d="M49.1,26.3c0,0.4,0,0.7,0,1.1c0,11-8.4,23.8-23.8,23.8c-4.7,0-9.1-1.4-12.8-3.8c0.7,0.1,1.3,0.1,2,0.1
	c3.9,0,7.5-1.3,10.4-3.6c-3.7-0.1-6.7-2.5-7.8-5.8c0.5,0.1,1,0.2,1.6,0.2c0.8,0,1.5-0.1,2.2-0.3c-3.8-0.8-6.7-4.1-6.7-8.2v-0.1
	c1.1,0.6,2.4,1,3.8,1.1c-2.3-1.5-3.7-4.1-3.7-7c0-1.5,0.4-3,1.1-4.2c4.1,5.1,10.3,8.4,17.2,8.7c-0.1-0.6-0.2-1.2-0.2-1.9
	c0-4.6,3.7-8.4,8.4-8.4c2.4,0,4.6,1,6.1,2.6c1.9-0.4,3.7-1.1,5.3-2c-0.6,2-1.9,3.6-3.7,4.6c1.7-0.2,3.3-0.6,4.8-1.3
	C52.1,23.7,50.7,25.1,49.1,26.3 M55.1,2.7H10.6c-5.3,0-9.7,4.3-9.7,9.7v44.4c0,5.4,4.3,9.7,9.7,9.7h44.4c5.4,0,9.7-4.3,9.7-9.7V12.4
	C64.8,7,60.4,2.7,55.1,2.7"/>
</svg>
